<svg xmlns="http://www.w3.org/2000/svg" viewBox="0 0 39.71 39.71"><defs><style>.a{fill:#2081c4;}</style></defs><title>logo-icon</title><path class="a" d="M312,244.82h0a2.48,2.48,0,0,0,2.48,2.48h9.93a2.48,2.48,0,0,0,2.48-2.48v-9.93a2.48,2.48,0,0,0-2.48-2.48h-9.93a2.48,2.48,0,0,0-2.48,2.48h0a2.48,2.48,0,0,0,2.48,2.48h2.48a2.48,2.48,0,0,1,2.48,2.48h0a2.48,2.48,0,0,1-2.48,2.48h-2.48A2.48,2.48,0,0,0,312,244.82Z" transform="translate(-299.55 -220)"/><path class="a" d="M302,220a2.48,2.48,0,0,0-2.48,2.48h0v34.75a2.48,2.48,0,0,0,2.48,2.48h34.75a2.48,2.48,0,0,0,2.48-2.48V222.48h0a2.48,2.48,0,0,0-2.48-2.48H302Zm27.3,32.26H309.47a2.48,2.48,0,0,1-2.48-2.48V229.93a2.48,2.48,0,0,1,2.48-2.48h19.85a2.48,2.48,0,0,1,2.48,2.48v19.85A2.48,2.48,0,0,1,329.33,252.26Z" transform="translate(-299.55 -220)"/></svg>